<svg width="1024" height="1024" viewBox="0 0 1024 1024" xmlns="http://www.w3.org/2000/svg" xmlns:xlink="http://www.w3.org/1999/xlink"><title>google</title><defs><path d="M.398 213.088C57.508 87.332 184.078 0 331.23 0c98.05 0 180.05 35.805 243.342 95.146l-98.617 94.987c-26.947-25.99-74.212-56.092-144.724-56.092-102.635 0-189.615 70.407-216.558 166.475L.398 213.088z" id="a"/></defs><g fill="none" fill-rule="evenodd"><rect fill="#F7F8FA" width="1024" height="1024" rx="78"/><path d="M531.23 460.542V585.2h206.02c-8.377 53.525-62.294 156.76-206.02 156.76-124.02 0-225.18-102.803-225.18-229.46 0-126.657 101.16-229.46 225.18-229.46 70.513 0 117.778 30.103 144.725 56.093l98.617-94.987C711.28 184.806 629.28 149 531.232 149 330.454 149 168 311.575 168 512.5S330.455 876 531.23 876C740.793 876 880 728.464 880 520.883c0-23.854-2.565-42.03-5.675-60.204l-343.094-.138z" fill="#2CA94F" fill-rule="nonzero"/><path d="M779.544 780.98C843.424 717.913 880 627.287 880 520.883c0-23.854-2.565-42.03-5.675-60.204l-343.094-.138V585.2h206.02c-4.875 31.154-25.18 79.148-69.64 113.825l111.934 81.955z" fill="#3E82F7" fill-rule="nonzero"/><path d="M211.013 684.37C183.565 633.21 168 574.694 168 512.5c0-54.002 11.735-105.234 32.795-151.284l115.638 82.33c-6.744 21.767-10.383 44.932-10.383 68.954 0 31.37 6.206 61.28 17.428 88.524L211.013 684.37z" fill="#FCBD00" fill-rule="nonzero"/><use fill="#ED422C" fill-rule="nonzero" xlink:href="#a" transform="translate(200 149)"/></g></svg>