<?xml version="1.0" encoding="UTF-8"?>
<svg width="211.851852px" height="32px" viewBox="0 0 211.851852 32" version="1.1" xmlns="http://www.w3.org/2000/svg" xmlns:xlink="http://www.w3.org/1999/xlink">
    <title>ta logo</title>
    <g id="Hover面板" stroke="none" stroke-width="1" fill="none" fill-rule="evenodd">
        <g id="Hover-panel-Trade-Assurance" transform="translate(-370, -339)" fill-rule="nonzero">
            <g id="Group-47" transform="translate(236, 271)">
                <g id="ta-logo" transform="translate(134, 68)">
                    <path d="M28.9534898,5.55964496 L24.6968437,3.85491448 C24.5129647,3.77810713 24.3027823,3.79931184 24.1379175,3.91130297 C23.9730527,4.02329411 23.8757501,4.21096109 23.8791662,4.41035526 L23.8791662,6.77393304 L19.9826524,6.77393304 L19.9826524,2.35995154 C19.9796025,2.12427886 19.8369118,1.91295942 19.6195682,1.82223759 L15.4278639,0.144097369 C14.9443981,-0.0480324562 14.4058585,-0.0480324562 13.9223927,0.144097369 L9.74249606,1.82223759 C9.52515241,1.91295942 9.38246175,2.12427886 9.37941182,2.35995154 L9.37941182,6.7680241 L5.47404231,6.7680241 L5.47404231,4.40444632 C5.4774584,4.20505214 5.38015583,4.01738517 5.21529103,3.90539403 C5.05042623,3.79340289 4.84024384,3.77219819 4.65636479,3.84900554 L0.396766751,5.55964496 C0.144454343,5.6570787 -0.0156293177,5.90697862 0.00121156238,6.17712965 L1.39451044,25.6766463 C1.42358342,26.0650851 1.66419194,26.4058651 2.02031417,26.562988 L13.8456432,31.824903 C14.3688945,32.0583657 14.9666026,32.0583657 15.4898539,31.824903 L27.3151829,26.562988 C27.6713051,26.4058651 27.9119137,26.0650851 27.9409866,25.6766463 L29.3313336,6.17712965 C29.3527779,5.91100481 29.2000849,5.66146892 28.9534898,5.55964496 Z" id="路径" fill="#FFC200"></path>
                    <path d="M18.4619566,18.1096296 C17.737048,17.517037 16.6697102,17.0133333 15.2599432,16.5985185 C14.664985,16.393646 14.0940102,16.1264398 13.5568085,15.8014815 C13.2635262,15.6191565 13.0881158,15.298943 13.0942287,14.957037 C13.090127,14.6009538 13.2531175,14.262995 13.5357821,14.0414815 C13.877721,13.7785275 14.3042992,13.6459806 14.7372881,13.6681481 C15.2399542,13.6302007 15.7402936,13.7664227 16.1520614,14.0533333 C16.4910103,14.37197 16.6636215,14.8260141 16.6206487,15.2859259 L19.3660898,15.2859259 L19.3660898,15.2385185 C19.4478253,14.1871724 18.9856922,13.166234 18.13755,12.5244444 C17.5356929,12.0848737 16.8367008,11.7924213 16.0979936,11.6711111 L16.0979936,9.77777778 L13.5237671,9.77777778 L13.5237671,11.6948148 C12.81469,11.8174003 12.1430266,12.0970043 11.5593048,12.5125926 C10.743753,13.062435 10.2629591,13.9797887 10.279701,14.9540741 C10.2250509,15.8751324 10.6368474,16.7630073 11.3790789,17.3244444 C12.1150013,17.8725926 13.2354056,18.3881481 14.7493032,18.8740741 C15.3002792,19.0361012 15.8222166,19.2820284 16.2962421,19.602963 C16.5897948,19.8459381 16.7482435,20.2124641 16.7227767,20.5896296 C16.7330424,20.9431889 16.5711312,21.280236 16.2872308,21.4962963 C15.8991297,21.7560258 15.4332,21.8782378 14.9655742,21.842963 C14.2476744,21.842963 13.7130043,21.6977778 13.3645675,21.4014815 C13.0161308,21.1051852 12.8419124,20.6103704 12.8419124,19.92 L10.0904638,19.92 L10.075445,19.9674074 C10.0454073,21.3501235 10.5089884,22.3585185 11.4661881,22.9925926 C12.0889518,23.404029 12.7900088,23.6862879 13.5267708,23.8222222 L13.5267708,25.7777778 L16.0979936,25.7777778 L16.0979936,23.8488889 C16.8876332,23.7575714 17.6425625,23.4767925 18.2967495,23.0311111 C19.1158436,22.4690693 19.5889078,21.5346764 19.5523233,20.5511111 C19.5961325,19.6138292 19.1926408,18.7103554 18.4619566,18.1096296 L18.4619566,18.1096296 Z" id="路径" fill="#FFFFFF"></path>
                    <polygon id="路径" fill="#222222" points="50.6606748 11.2548222 46.2536794 11.2548222 46.2536794 24.5925926 43.194847 24.5925926 43.194847 11.2548222 38.8148148 11.2548222 38.8148148 8.59259259 50.6666667 8.59259259"></polygon>
                    <path d="M57.7777778,12.1481481 L57.6868354,14.742107 L57.3934727,14.742107 C55.8151815,14.742107 54.286762,15.2983803 53.8291162,17.4520801 L53.8291162,24.8888889 L50.962963,24.8888889 L50.962963,12.3801766 L53.8203154,12.3801766 L53.8203154,14.6260928 C54.5742574,12.5646094 56.0586725,12.1481481 57.5196186,12.1481481 L57.7777778,12.1481481 Z" id="路径" fill="#222222"></path>
                    <path d="M69.037037,16.0843357 L69.037037,24.6638804 L66.480401,24.6638804 L66.1844941,23.0917431 C65.5926802,24.1408087 64.0184552,24.8888889 62.0417969,24.8888889 C59.2070083,24.8888889 57.7777778,23.6148148 57.7777778,21.180632 C57.7777778,18.2905878 59.5976055,17.267822 62.8259503,17.267822 L66.1667397,17.267822 L66.1667397,16.7213727 C66.1667397,15.2427455 65.6577797,14.5355759 63.3556237,14.5355759 C62.4620637,14.54023 61.5707434,14.6243391 60.6924612,14.7868841 L60.6924612,12.3527013 C61.6778932,12.2178828 62.6714833,12.1495401 63.666326,12.1481481 C67.7232102,12.1481481 69.037037,13.6267754 69.037037,16.0843357 Z M66.3703704,20.8238169 L66.3703704,19.2592593 L63.3630896,19.2592593 C61.5376701,19.2592593 60.7407407,19.5902778 60.7407407,20.9992284 C60.7407407,22.0347222 61.3421969,22.5185185 62.8007281,22.5185185 C64.5660019,22.5185185 65.8531181,21.8593107 66.3703704,20.8238169 L66.3703704,20.8238169 Z" id="形状" fill="#222222"></path>
                    <path d="M83.2592593,7.11111111 L83.2592593,24.6605885 L80.6773127,24.6605885 L80.3964065,22.8341858 C79.9093032,24.0201616 78.7438412,24.8888889 76.4876263,24.8888889 C72.3696606,24.8888889 71.4074074,22.3271811 71.4074074,18.4253206 C71.4074074,14.9148321 72.3846025,11.9617523 76.4876263,11.9617523 C78.8364805,11.9617523 79.8614893,12.7444963 80.3724996,13.9690164 L80.3724996,7.11111111 L83.2592593,7.11111111 Z M80.2962963,18.5305445 C80.2962963,15.9569759 79.6401283,14.2222222 77.1641878,14.2222222 C74.6415865,14.2222222 74.3703704,16.2606329 74.3703704,18.5305445 C74.3703704,20.965814 74.7115777,22.8148148 77.1641878,22.8148148 C79.6167979,22.8148148 80.2962963,21.245419 80.2962963,18.5305445 Z" id="形状" fill="#222222"></path>
                    <path d="M96.7725283,19.053279 L88.5539698,19.5763507 C88.6225323,21.6218824 89.645008,22.5803602 92.1520112,22.5803602 C93.5578028,22.5798835 94.9486303,22.2974583 96.2389331,21.7504587 L96.2389331,24.0706762 C95.4936884,24.4797825 93.6842343,24.8888889 91.6422638,24.8888889 C87.8325729,24.8888889 85.6296296,23.4803942 85.6296296,18.5185185 C85.6296296,13.5566429 87.8325729,12.1481481 91.6422638,12.1481481 C95.9825689,12.1481481 96.8888393,14.5589534 96.8888393,17.4489976 C96.8904759,17.9858378 96.851617,18.5220639 96.7725283,19.053279 L96.7725283,19.053279 Z M94.2222222,17.068917 C94.2222222,15.5306409 93.8978937,14.2222222 91.6752016,14.2222222 C89.3334899,14.2222222 88.6848328,15.3243587 88.5925926,17.4814815 L94.2222222,17.068917 Z" id="形状" fill="#222222"></path>
                    <path d="M114.142222,20.3466667 L107.451852,20.3466667 L105.928889,24.5925926 L102.814815,24.5925926 L108.811852,8.59259259 L112.888889,8.59259259 L118.814815,24.5925926 L115.620741,24.5925926 L114.142222,20.3466667 Z M113.481481,17.7777778 L111.129237,11.2592593 L110.842452,11.2592593 L108.444444,17.7777778 L113.481481,17.7777778 Z" id="形状" fill="#222222"></path>
                    <path d="M119.703704,24.5044077 L119.703704,22.0973059 C120.926336,22.4402872 122.189268,22.6252718 123.460585,22.6475847 C125.069393,22.6475847 125.839344,22.326834 125.839344,21.1762511 C125.839344,20.0256682 125.419915,19.7549429 123.271842,19.2517468 C120.542561,18.6102453 119.865483,17.8068972 119.865483,15.7205461 C119.865483,13.4988324 121.288544,12.1481481 124.718871,12.1481481 C126.049058,12.1481481 127.448152,12.3305935 128.077295,12.5601216 L127.939482,14.8053766 C126.924707,14.5058383 125.87134,14.3512363 124.811744,14.3463205 C123.202936,14.3463205 122.594765,14.6670713 122.594765,15.6999475 C122.594765,16.6621996 122.993222,16.8211037 124.952552,17.3037011 C127.75074,17.9687439 128.592593,18.7750347 128.592593,21.0850284 C128.592593,23.8570209 126.771074,24.8869544 123.598397,24.8869544 C122.28953,24.9064811 120.982716,24.7781226 119.703704,24.5044077 L119.703704,24.5044077 Z" id="路径" fill="#222222"></path>
                    <path d="M130.37037,24.4990557 L130.37037,22.0929966 C131.588161,22.4346011 132.845979,22.6194939 134.112272,22.643037 C135.724076,22.643037 136.494027,22.3224252 136.494027,21.1723407 C136.494027,20.0222562 136.071602,19.7516481 133.926525,19.2486699 C131.197244,18.6074463 130.520166,17.8044462 130.520166,15.7189988 C130.520166,13.4982474 131.943227,12.1481481 135.373554,12.1481481 C136.703741,12.1481481 138.102835,12.3305145 138.731978,12.5599431 L138.606149,14.8101085 C137.591374,14.5106998 136.538007,14.3561649 135.478411,14.3512512 C133.869603,14.3512512 133.261431,14.671863 133.261431,15.7042918 C133.261431,16.6661272 133.659888,16.8249624 135.619219,17.3073508 C138.417406,17.9721055 139.259259,18.7780471 139.259259,21.0870403 C139.259259,23.8578322 137.437741,24.8873196 134.265064,24.8873196 C132.955966,24.9049061 131.64915,24.774629 130.37037,24.4990557 Z" id="路径" fill="#222222"></path>
                    <path d="M152.296296,12.1481481 L152.296296,24.6597817 L149.686352,24.6597817 L149.432233,23.0590067 C148.708744,24.4038957 147.288671,24.8888889 145.545718,24.8888889 C142.379703,24.8888889 141.333333,23.3624994 141.333333,20.7441313 L141.333333,12.1481481 L144.242241,12.1481481 L144.242241,19.9199405 C144.242241,21.6575847 144.639861,22.4936772 146.430648,22.4936772 C147.826804,22.4936772 148.90008,22.0979466 149.387389,20.500147 L149.387389,12.1689761 L152.296296,12.1481481 Z" id="路径" fill="#222222"></path>
                    <path d="M162.074074,12.1481481 L161.982975,14.742107 L161.689106,14.742107 C160.111031,14.742107 158.577037,15.2983803 158.12154,17.4520801 L158.12154,24.8888889 L155.259259,24.8888889 L155.259259,12.3801766 L158.12154,12.3801766 L158.12154,14.6260928 C158.876783,12.5646094 160.363758,12.1481481 161.827224,12.1481481 L162.074074,12.1481481 Z" id="路径" fill="#222222"></path>
                    <path d="M173.333333,16.0843357 L173.333333,24.6638804 L170.776697,24.6638804 L170.48079,23.0917431 C169.888976,24.1408087 168.314752,24.8888889 166.338093,24.8888889 C163.503305,24.8888889 162.074074,23.6148148 162.074074,21.180632 C162.074074,18.2905878 163.893902,17.267822 167.119287,17.267822 L170.463036,17.267822 L170.463036,16.7213727 C170.463036,15.2427455 169.954076,14.5355759 167.648961,14.5355759 C166.755399,14.5401984 165.864076,14.6243077 164.985798,14.7868841 L164.985798,12.3527013 C165.966327,12.2184271 166.954959,12.1500854 167.944868,12.1481481 C172.010629,12.1481481 173.333333,13.6267754 173.333333,16.0843357 Z M170.666667,20.8238169 L170.666667,19.2592593 L167.659386,19.2592593 C165.830959,19.2592593 165.037037,19.5902778 165.037037,20.9992284 C165.037037,22.0347222 165.638493,22.5185185 167.097024,22.5185185 C168.853276,22.5185185 170.140393,21.8593107 170.657645,20.8238169 L170.666667,20.8238169 Z" id="形状" fill="#222222"></path>
                    <path d="M187.555556,16.3157358 L187.555556,24.8888889 L184.671813,24.8888889 L184.671813,17.1278353 C184.671813,15.366799 184.277633,14.5576742 182.523084,14.5576742 C181.041202,14.5576742 179.986102,14.9741355 179.479299,16.5477642 L179.479299,24.87699 L176.592593,24.87699 L176.592593,12.3801766 L179.479299,12.3801766 L179.479299,13.9538053 C180.193566,12.6568259 181.69323,12.1481481 183.400358,12.1481481 C186.562695,12.1481481 187.555556,13.677156 187.555556,16.3157358 Z" id="路径" fill="#222222"></path>
                    <path d="M189.62963,18.51872 C189.62963,13.5512147 191.881105,12.1486249 195.748948,12.1486249 C196.856688,12.1389489 197.960575,12.2765906 199.029841,12.5577136 L199.029841,14.9917912 C198.074579,14.6625805 197.066521,14.501293 196.052957,14.5154951 C193.614862,14.5154951 192.654674,15.3921137 192.654674,18.5420965 C192.654674,21.6365601 193.614862,22.5014904 196.101117,22.5014904 C197.125996,22.5191164 198.145718,22.3567675 199.111111,22.0222723 L199.111111,24.4358954 C198.013936,24.7402619 196.877993,24.8927395 195.736908,24.8888889 C191.881105,24.8888889 189.62963,23.4803812 189.62963,18.51872 Z" id="路径" fill="#222222"></path>
                    <path d="M211.735384,19.053279 L203.523651,19.5763507 C203.592231,21.6218824 204.61497,22.5803602 207.12262,22.5803602 C208.525848,22.5795122 209.914036,22.2970775 211.201651,21.7504587 L211.201651,24.0706762 C210.459196,24.4797825 208.649275,24.8888889 206.603796,24.8888889 C202.796104,24.8888889 200.592593,23.4803942 200.592593,18.5185185 C200.592593,13.5566429 202.796104,12.1481481 206.603796,12.1481481 C210.948203,12.1481481 211.851672,14.5589534 211.851672,17.4489976 C211.854844,17.9858861 211.815967,18.5222214 211.735384,19.053279 Z M209.185185,17.068917 C209.185185,15.5306409 208.860857,14.2222222 206.635189,14.2222222 C204.296453,14.2222222 203.659698,15.3243587 203.555556,17.4814815 L209.185185,17.068917 Z" id="形状" fill="#222222"></path>
                </g>
            </g>
        </g>
    </g>
</svg>