<svg width="1024" height="1024" viewBox="0 0 1024 1024" xmlns="http://www.w3.org/2000/svg"><title>LinkeIn</title><g fill="none" fill-rule="evenodd"><rect fill="#0064A3" width="1024" height="1024" rx="78"/><path d="M227.328 389.824h114.624v432.4H227.328v-432.4zm572.8 24.8c28.32 23.392 42.464 62.224 42.464 116.416v291.184h-115.84V559.216c0-22.752-3.024-40.208-9.056-52.352-11.008-22.24-32-33.328-63.008-33.328-38.08 0-64.192 16.272-78.352 48.8-7.36 17.2-11.008 39.136-11.008 65.824v234.064H452.272V390.608h109.456v63.088c14.496-22.208 28.192-38.208 41.088-48 23.184-17.456 52.544-26.192 88.096-26.192 44.496.016 80.896 11.696 109.216 35.12zM355.872 257.216c-.004 39.345-31.903 71.236-71.248 71.232-39.345-.004-71.236-31.903-71.232-71.248.005-39.345 31.903-71.236 71.248-71.232 39.345.004 71.237 31.903 71.232 71.248z" fill="#FFF" fill-rule="nonzero"/></g></svg>