<?xml version="1.0" encoding="UTF-8"?>
<svg width="70px" height="70px" viewBox="0 0 70 70" version="1.1" xmlns="http://www.w3.org/2000/svg" xmlns:xlink="http://www.w3.org/1999/xlink">
    <title>icon</title>
    <g id="第二版" stroke="none" stroke-width="1" fill="none" fill-rule="evenodd">
        <g id="0602" transform="translate(-686.000000, -2681.000000)">
            <g id="电梯层" transform="translate(0.000000, 2465.000000)">
                <g id="电梯定位" transform="translate(355.000000, 190.000000)">
                    <g id="money-back" transform="translate(305.000000, 0.000000)">
                        <g id="icon" transform="translate(26.000000, 26.000000)">
                            <circle id="椭圆形备份-13" fill="#FFE799" opacity="0.25" cx="35" cy="35" r="35"></circle>
                            <circle id="椭圆形" fill="#FFE799" cx="35" cy="35" r="28"></circle>
                            <g id="money-exchange-rate" transform="translate(14.000000, 14.000000)">
                                <rect id="矩形" x="0" y="0" width="42" height="42"></rect>
                                <path d="M34.3153176,16.8892169 L37.4303635,16.8902724 C37.7616175,18.2135229 37.9375,19.5983635 37.9375,21.0242835 C37.9375,30.3960509 30.3403291,37.9931597 20.96875,37.9931597 L20.6463042,37.9901574 C15.9977599,37.9035258 11.806306,35.9476143 8.79210818,32.8425813 L8.79264821,37.75 L5.79264821,37.75 L5.79264821,28 L14.5113982,28 L14.5113982,31 L11.8701167,31.0017915 C14.0762407,33.346353 17.1043501,34.6697824 21.0278702,34.9930373 L21.2200251,34.9909554 L21.416027,34.9861346 L21.6473022,34.9769679 L21.702,34.9736597 L21.761397,34.9710474 L21.826,34.9666597 L21.8775988,34.9640673 L21.839,34.9656597 L21.9039211,34.9623508 C22.1312615,34.947323 22.3571154,34.9268561 22.581354,34.9010791 L22.6035294,34.8985156 L22.614,34.8966597 L22.637,34.893 L22.673,34.889 L22.84,34.8686597 L22.8302919,34.8701986 L22.843,34.8686597 L22.896,34.86 L22.908,34.858 L22.9767707,34.8499021 C23.0255161,34.8428844 23.0741802,34.835615 23.1227615,34.8280953 L23.0938736,34.8325426 L23.156,34.8216597 L23.322,34.7946597 L23.253,34.8066597 L23.289915,34.8011816 C23.3455223,34.7918811 23.4010183,34.7822522 23.4564009,34.7722967 L23.5987439,34.7459442 L23.679,34.729 L23.6165103,34.7425578 L23.764,34.7126597 L23.8993804,34.685221 L23.994,34.6636597 L24.0499659,34.6522102 L24.083,34.6436597 L24.1940289,34.6189549 L24.3300247,34.5860861 L24.191,34.6186597 L24.3510218,34.5808986 L24.405,34.5666597 L24.353,34.58 L24.406,34.5666597 L24.4760277,34.5491761 L24.5487992,34.5301475 L24.614,34.512 L24.651328,34.5026398 L24.676,34.495 L24.7723958,34.4690273 L24.871,34.44 L24.9338342,34.4224082 L24.999,34.4016597 L25.0695507,34.3815261 L25.13,34.362 L25.2061958,34.3388764 L25.3551837,34.2905454 L25.4939909,34.2438577 L25.6241669,34.198582 L25.6517327,34.1888392 L25.7764912,34.1437829 L25.866,34.1096597 L25.954,34.0766597 L26.0203962,34.0517659 L26.061,34.0356597 L26.1395658,34.0048893 L26.2089555,33.9769679 L26.293,33.9416597 L26.303,33.9376597 L26.377,33.9066597 L26.396,33.8986597 L26.539,33.8376597 L26.601,33.8106597 L26.693,33.7696597 L26.7383558,33.7496759 L26.7554391,33.7419507 L26.855,33.6956597 L26.865,33.6906597 L26.954606,33.6492738 L27.089,33.5836597 L27.109,33.5736597 L27.2235933,33.5179468 L27.2890427,33.4848449 L27.398,33.4276597 L27.4218312,33.4164568 C27.4966921,33.3773929 27.5711548,33.3376705 27.6452117,33.2972974 C27.734455,33.2486452 27.8231089,33.199048 27.91116,33.1485191 L27.841,33.187 L27.9160438,33.145781 L28.01,33.09 L27.956,33.121 L28.025,33.0816597 L28.0629414,33.0602122 C28.1421124,33.0134466 28.2207818,32.965922 28.2989397,32.9176485 L28.206,32.9726597 L28.4064115,32.8505201 L28.5381917,32.7664323 L28.733,32.6376597 L28.79,32.5996597 L28.8908966,32.5310215 L28.96,32.4816597 L29.0098371,32.448065 L29.029,32.4336597 L29.072,32.4026597 L29.1274339,32.3642266 C29.1664821,32.3360832 29.2053791,32.3077432 29.2441234,32.2792078 L29.264,32.2636597 L29.354,32.1966597 L29.3671939,32.1875227 L29.4892183,32.0945235 L29.502,32.0836597 L29.567,32.0326597 L29.7234814,31.909947 L29.9536717,31.7205174 L30.0647359,31.6261366 L30.128,31.5696597 L30.15,31.5506597 L30.168,31.5346597 C30.3114992,31.4107433 30.4458401,31.2882387 30.5777426,31.1631875 L30.7617903,30.9853825 L30.9426239,30.8042951 L31.026,30.7176597 L31.1098626,30.6309419 L31.2086279,30.5255188 L31.31,30.4146597 L31.364,30.3546597 L31.3958347,30.3197863 L31.4112797,30.3025843 L31.432,30.2776597 L31.506,30.1936597 L31.585,30.1026597 L31.5971372,30.0891228 L31.669,30.0026597 L31.6868641,29.9831061 L31.7080547,29.9575729 L31.797,29.847 L31.7713827,29.8811238 L31.804,29.8396597 L31.8697116,29.7599651 C31.9022667,29.7193926 31.9345999,29.6786346 31.9667095,29.6376927 L31.968,29.634 L32.004,29.588 L32.0367761,29.5474447 L31.9667095,29.6376927 C32.0830669,29.4893291 32.1964872,29.338552 32.3068827,29.1854491 L32.363,29.1056597 L32.3940306,29.0632123 C32.4228663,29.0223044 32.4514878,28.9812346 32.4798936,28.9400047 L32.436,29.001 L32.6517273,28.6844565 C32.7273815,28.5693044 32.8013791,28.4529667 32.8736861,28.3354774 C32.9480085,28.2148963 33.0205892,28.0928424 33.0913447,27.9696071 L33.138,27.8846597 L33.2386001,27.7065897 C33.2867651,27.6183359 33.3340057,27.5295052 33.3803088,27.4401105 C33.4498691,27.3056302 33.5175258,27.1696277 33.5830087,27.0323888 C33.6120182,26.9717885 33.6404746,26.9110207 33.6685043,26.8500163 C33.7680191,26.6332499 33.8623875,26.4131267 33.9511792,26.1901777 L34.0336123,25.978368 C34.1813298,25.5888144 34.3122281,25.1908543 34.4252992,24.7854605 C34.4386972,24.7376488 34.4517539,24.6898443 34.4645624,24.6419383 L34.5299358,24.3875856 C34.6144222,24.045795 34.6863249,23.6990447 34.7451241,23.3478544 C34.8716728,22.5921197 34.9375,21.8160152 34.9375,21.024536 L34.9340856,20.7123392 C34.9049797,19.3839747 34.6904376,18.1013146 34.3153176,16.8892169 Z M22.5516496,13.515625 L22.551084,15.2250745 C22.9854711,15.2981207 23.4396082,15.3976854 23.9118822,15.5230839 L24.181029,15.5967891 L23.3666486,18.4841382 L22.8603119,18.3475414 L22.4001339,18.2362182 L21.9842421,18.1493735 C20.40675,17.8498919 19.8471829,18.1188176 19.766241,18.727209 C19.7612371,18.7648207 19.7817751,18.8139987 19.8349509,18.8756421 L19.914882,18.955655 L20.02887,19.0479797 L20.1796398,19.1529616 L20.3699159,19.2709458 L20.6024231,19.4022775 L20.8798863,19.5473019 L21.2050301,19.7063642 L21.5805792,19.8798097 L22.2137297,20.1596113 C24.2325859,21.0626353 25.2738388,21.9760928 25.2738388,23.8029891 C25.2738388,25.5762526 24.1380218,26.950988 22.5520327,27.4538087 L22.5516496,29.1844568 L19.5516496,29.1844568 L19.5519119,27.3842047 L19.4029494,27.3313922 L19.2686405,27.2798497 L18.9693981,27.1547025 L18.6285839,26.9998882 L18.2453111,26.8151058 L17.8186928,26.6000546 L17.0955529,26.2200654 L16.5566912,25.9280257 L17.9973552,23.2965837 L18.4848732,23.5608884 L18.9279218,23.795766 L19.3256141,24.0009157 L19.6770634,24.1760365 L19.9813829,24.3208276 L20.2376856,24.4349881 L20.4450848,24.5182172 C21.5410732,24.924224 22.2738388,24.4628377 22.2738388,23.8029891 C22.2738388,23.6308991 22.0922791,23.4393558 21.4824459,23.1312559 L21.1696761,22.9804261 L20.5820907,22.7189457 C17.7733542,21.4857853 16.5111994,20.4455153 16.7924441,18.3315679 C17.0260598,16.5756192 18.0066969,15.5624382 19.5509407,15.2141624 L19.5516496,13.515625 L22.5516496,13.515625 Z M35.5113982,4 L35.5113982,13.75 L26.7926482,13.75 L26.7926482,10.75 L29.7774844,10.7495053 C27.6792241,8.67019861 24.880354,7.45713652 21.3234279,7.09392229 L20.91,7.05565975 L20.6725315,7.05873821 L20.4304325,7.06584143 L20.3068524,7.07106484 L20.232,7.07465975 L20.155,7.07865975 L20.000599,7.08868616 L19.8182897,7.10235625 L19.669,7.11465975 L19.526,7.12865975 L19.4061505,7.14208328 L19.0832615,7.18183091 L18.7626891,7.22888143 L18.616,7.25265975 L18.6745577,7.24314588 L18.5433038,7.26547786 L18.494,7.27365975 L18.4124687,7.28902748 L18.1640156,7.33732885 L17.8710113,7.40035392 L17.7961672,7.41750297 L17.5699326,7.47206331 C17.4699951,7.49704728 17.3704841,7.52310773 17.2714125,7.55023164 C17.2459403,7.55718601 17.2209025,7.56411722 17.195893,7.5711163 L17.235,7.55965975 L17.1507788,7.58384538 C17.1106408,7.59522521 17.0705764,7.60677998 17.0305864,7.61850884 L16.8808064,7.6633576 L16.855,7.67065975 L16.823,7.68065975 L16.683,7.725 L16.4480103,7.80342212 C16.3538839,7.83559989 16.2602104,7.86875459 16.167002,7.90287414 C16.0168579,7.95779284 15.8673477,8.0154804 15.7191044,8.07563973 C15.6907852,8.08717135 15.6624951,8.09876135 15.6342516,8.1104413 L15.601,8.123 L15.576,8.133 L15.559,8.14065975 L15.485,8.17165975 L15.452,8.18665975 L15.3776132,8.21956079 L15.3116132,8.24866873 L15.204,8.29665975 L15.182,8.30665975 L15.0824073,8.35276123 L14.9394297,8.4203328 L14.802,8.48665975 L14.76,8.50765975 L14.6859535,8.54493392 L14.628,8.57365975 L14.5365849,8.62141381 L14.478,8.65165975 L14.427844,8.67859028 L14.3882617,8.69962757 L14.364,8.71165975 L14.331,8.72965975 L14.2922883,8.75152212 C14.113798,8.84882855 13.9376652,8.94991532 13.7639974,9.05467485 C13.7290153,9.07570389 13.693697,9.09722074 13.6584822,9.11888945 L13.637,9.13165975 L13.5474943,9.18790111 L13.4372022,9.25791831 C13.3484892,9.31481964 13.2604619,9.37269678 13.1731355,9.43153457 L13.155,9.44365975 L13.05,9.51465975 L12.976,9.56565975 L13.0275884,9.53102194 C12.9563912,9.58030834 12.8856741,9.63023927 12.8154455,9.68080627 L12.7970269,9.69400206 L12.705,9.76065975 L12.5961649,9.84195121 L12.584,9.85065975 L12.5578406,9.87070074 L12.479,9.92965975 L12.558,9.87065975 L12.3377296,10.0404936 C12.2523808,10.1076533 12.1678339,10.1757865 12.0841057,10.2448762 C12.0678993,10.2581454 12.0518749,10.2714282 12.0358807,10.2847462 L11.9828411,10.3292384 L11.8823878,10.4145342 L11.851,10.4406597 L11.560829,10.698815 C11.4551153,10.7951896 11.3508871,10.8931657 11.2481826,10.9927049 C11.0518042,11.1830311 10.8609968,11.3790722 10.6760287,11.58056 L10.4029893,11.8868432 C10.3574176,11.9394916 10.3122327,11.992484 10.2674391,12.0458162 L10.247,12.0696597 L10.1565739,12.1794843 L10.066,12.2906597 L10.015,12.3546597 L9.96,12.424 L9.8752742,12.5344766 L9.81176436,12.617824 L9.80482876,12.6271806 L9.792,12.6426597 L9.73514014,12.720487 L9.719,12.7416597 L9.62542528,12.8707391 L9.579,12.9346597 L9.54,12.9886597 L9.51767104,13.0224973 L9.45483459,13.1128395 L9.413,13.1726597 L9.374,13.2306597 L9.359,13.2526597 L9.301,13.3396597 L9.2866465,13.3628605 L9.22291285,13.460905 L9.183,13.5226597 L9.176,13.5336597 L9.00473091,13.8102233 L8.79665541,14.1663337 L8.59888696,14.5290357 C8.56464009,14.5941206 8.53089183,14.6595089 8.49764726,14.7251953 L8.48,14.7586597 L8.426,14.8676597 L8.478,14.7636597 L8.35060996,15.0245719 C8.30275607,15.1250314 8.25606653,15.2261524 8.2105588,15.3279174 L8.19012452,15.3736558 L8.182,15.3916597 L8.16979241,15.4197677 C8.08840931,15.6053532 8.01094441,15.7930472 7.93750238,15.9827451 C7.88854758,16.1094078 7.84137128,16.2367726 7.79601415,16.3649972 C7.7089923,16.6108002 7.62873465,16.8597561 7.55538029,17.1116525 C7.45328144,17.462536 7.3646674,17.8183734 7.28997913,18.1793053 C7.26252165,18.3117474 7.23691407,18.4452952 7.21322265,18.5795042 L7.16744331,18.8551851 C7.13790433,19.0446318 7.1121726,19.2353392 7.09032882,19.4272265 C7.03066266,19.9510768 7,20.4840993 7,21.0242835 C7,22.4570206 7.21566709,23.8393254 7.61630593,25.1405329 L4.50262679,25.1404898 C4.17428638,23.8226999 4,22.4439713 4,21.024536 C4,19.8851866 4.11229095,18.7720613 4.32640942,17.6956239 C5.87314435,9.91810611 12.7363201,4.05565975 20.96875,4.05565975 C25.4269825,4.05565975 29.4836523,5.77494617 32.5118873,8.5866534 L32.5113982,4 L35.5113982,4 Z" id="形状结合" fill="#222222" fill-rule="nonzero"></path>
                            </g>
                        </g>
                    </g>
                </g>
            </g>
        </g>
    </g>
</svg>