<?xml version="1.0" encoding="UTF-8"?>
<svg width="70px" height="70px" viewBox="0 0 70 70" version="1.1" xmlns="http://www.w3.org/2000/svg" xmlns:xlink="http://www.w3.org/1999/xlink">
    <title>icon</title>
    <g id="第二版" stroke="none" stroke-width="1" fill="none" fill-rule="evenodd">
        <g id="0602" transform="translate(-1296.000000, -2681.000000)">
            <g id="电梯层" transform="translate(0.000000, 2465.000000)">
                <g id="电梯定位" transform="translate(355.000000, 190.000000)">
                    <g id="after-sales" transform="translate(915.000000, 0.000000)">
                        <g id="icon" transform="translate(26.000000, 26.000000)">
                            <circle id="椭圆形备份-13" fill="#FFE799" opacity="0.25" cx="35" cy="35" r="35"></circle>
                            <circle id="椭圆形" fill="#FFE799" cx="35" cy="35" r="28"></circle>
                            <g id="编组-2" transform="translate(14.000000, 14.000000)">
                                <rect id="矩形" x="0" y="0" width="42" height="42"></rect>
                                <g id="维修图标" transform="translate(5.000000, 5.000000)" fill="#000000">
                                    <g id="编组" transform="translate(15.632341, 16.667221) rotate(-315.000000) translate(-15.632341, -16.667221) translate(11.132341, -0.940247)">
                                        <path d="M9,24.2149366 L9,35.2149366 L0,35.2149366 L0,24.2149366 L9,24.2149366 Z M6,27.2149366 L3,27.2149366 L3,32.2149366 L6,32.2149366 L6,27.2149366 Z" id="矩形" fill-rule="nonzero"></path>
                                        <path d="M2.79253482,18.3159078 L5.79253482,18.3449078 L5.79289322,25.2799078 L2.79289322,25.2799078 L2.79253482,18.3159078 Z M5.79289322,6.27990776 L5.79253482,14.6899078 L2.79253482,14.6609078 L2.79289322,6.27990776 L5.79289322,6.27990776 Z" id="形状结合"></path>
                                        <polygon id="矩形备份" points="0.949565563 0.0591790905 7.34484217 -4.54747351e-13 7.44956556 8 0.949565563 8"></polygon>
                                    </g>
                                    <path d="M7.15625055,0 L14.3079237,1.76823342 L17.7408032,5.20111127 L18.0678606,11.1367325 L31,24.0701234 L24.0710639,31 L11.1364417,18.064151 L5.53206209,17.4110517 L2.10002168,13.979013 L9.53871976e-12,7.1581175 L2.14300816,5.0151104 L5.73351202,8.60613956 L8.60083351,8.60083692 L8.5350875,5.78332701 L4.95426673,2.20198274 L7.15625055,0 Z M12.3323438,4.68331979 L12.3191742,11.7905416 L5.35070235,11.6247345 L5,11.2659652 L5.37799667,12.8228355 L7.33724644,14.820634 L13.1255698,15.1468979 L24.4411011,26.6833198 L27,24.0740738 L15.7552433,12.6095751 L15.1188324,7.03628255 L13.0240184,4.90025246 L12.3323438,4.68331979 Z" id="形状结合" fill-rule="nonzero"></path>
                                </g>
                            </g>
                        </g>
                    </g>
                </g>
            </g>
        </g>
    </g>
</svg>