<?xml version="1.0" encoding="UTF-8"?>
<svg width="70px" height="70px" viewBox="0 0 70 70" version="1.1" xmlns="http://www.w3.org/2000/svg" xmlns:xlink="http://www.w3.org/1999/xlink">
    <title>icon</title>
    <g id="第二版" stroke="none" stroke-width="1" fill="none" fill-rule="evenodd">
        <g id="0602" transform="translate(-381.000000, -2681.000000)">
            <g id="电梯层" transform="translate(0.000000, 2465.000000)">
                <g id="电梯定位" transform="translate(355.000000, 190.000000)">
                    <g id="icon" transform="translate(26.000000, 26.000000)">
                        <circle id="椭圆形备份-13" fill="#FFE799" opacity="0.25" cx="35" cy="35" r="35"></circle>
                        <circle id="椭圆形" fill="#FFE799" cx="35" cy="35" r="28"></circle>
                        <g id="security" transform="translate(14.000000, 14.000000)">
                            <rect id="矩形" x="0" y="0" width="42" height="42"></rect>
                            <path d="M21.772988,4.10129518 L34.772988,7.56796185 C36.0862482,7.91816458 37,9.10751457 37,10.4666667 L37,26.9082833 C37,27.863914 36.5447163,28.7623731 35.774091,29.3274983 L22.774091,38.8608317 C21.7181182,39.6352117 20.2818818,39.6352117 19.225909,38.8608317 L6.22590901,29.3274983 C5.4552837,28.7623731 5,27.863914 5,26.9082833 L5,10.4666667 C5,9.10751457 5.9137518,7.91816458 7.22701205,7.56796185 L20.227012,4.10129518 C20.733488,3.96623494 21.266512,3.96623494 21.772988,4.10129518 Z M21,7 L8,10.4666667 L8,26.9082833 L21,36.4416167 L34,26.9082833 L34,10.4666667 L21,7 Z M26.9447148,12.8291571 L29.0552852,14.9611731 L18.3155637,25.5928659 L12.9396417,20.2200031 L15.0603583,18.0980791 L18.3256558,21.3615186 L26.9447148,12.8291571 Z" id="形状结合" fill="#222222" fill-rule="nonzero"></path>
                        </g>
                    </g>
                </g>
            </g>
        </g>
    </g>
</svg>