<?xml version="1.0" encoding="UTF-8"?>
<svg width="70px" height="70px" viewBox="0 0 70 70" version="1.1" xmlns="http://www.w3.org/2000/svg" xmlns:xlink="http://www.w3.org/1999/xlink">
    <title>icon</title>
    <g id="第二版" stroke="none" stroke-width="1" fill="none" fill-rule="evenodd">
        <g id="0602" transform="translate(-991.000000, -2681.000000)">
            <g id="电梯层" transform="translate(0.000000, 2465.000000)">
                <g id="电梯定位" transform="translate(355.000000, 190.000000)">
                    <g id="logistics" transform="translate(610.000000, 0.000000)">
                        <g id="icon" transform="translate(26.000000, 26.000000)">
                            <circle id="椭圆形备份-13" fill="#FFE799" opacity="0.25" cx="35" cy="35" r="35"></circle>
                            <circle id="椭圆形" fill="#FFE799" cx="35" cy="35" r="28"></circle>
                            <g id="logistics-icon" transform="translate(14.000000, 14.000000)">
                                <rect id="矩形" x="0" y="0" width="42" height="42"></rect>
                                <path d="M24.7201548,33.5834774 C27.5685423,32.2673474 30.8309073,32.1427821 33.7782703,33.2480432 L37.5908789,34.6777715 L36.5375086,37.486759 L32.7249,36.0570308 C30.4452686,35.202169 27.912629,35.3350986 25.7350142,36.423906 L25.4188174,36.5757498 C22.556521,37.8944988 19.2584653,37.9211955 16.3682966,36.6366761 L15.9549861,36.4529825 C13.4671818,35.3472917 10.6311328,35.3283856 8.12880838,36.4008103 L5.65507273,37.4609828 L4.47331484,34.7035477 L6.94705049,33.6433753 C10.216801,32.2420536 13.9226243,32.266758 17.1734015,33.7115479 L17.586712,33.8952415 C19.7647436,34.8632555 22.2615436,34.8065393 24.3933734,33.7406244 Z M24,5 C25.6568542,5 27,6.34314575 27,8 L26.9997584,11 L30,11 C31.6568542,11 33,12.3431458 33,14 L32.9997584,21.499 L34.3429594,22.0036098 C35.8336926,22.5626347 36.6281031,24.1888036 36.1527574,25.7082907 L35,29.3931885 C34.779687,30.0974397 34.4793865,30.7600667 34.1109744,31.3723414 L33.7782703,31.2480432 C32.8761928,30.9097641 31.9446076,30.6866882 31.0044149,30.5777184 C31.504428,29.9779954 31.893409,29.2756182 32.1368316,28.4974951 L33.289589,24.8125973 L31.123,24 L23.122,21 L21,20.2040014 L8.71041097,24.8125973 L9.8631684,28.4974951 C10.1156752,29.3046567 10.5248072,30.0303134 11.0508346,30.6452654 C9.96626345,30.7229921 8.88865577,30.9408876 7.84566988,31.2976673 C7.49710188,30.7078494 7.21164297,30.0697252 7,29.3931885 L5.84724257,25.7082907 C5.37189693,24.1888036 6.16630739,22.5626347 7.65704064,22.0036098 L8.99975841,21.499 L9,14 C9,12.3431458 10.3431458,11 12,11 L14.9997584,11 L15,8 C15,6.34314575 16.3431458,5 18,5 L24,5 Z M30,14 L12,14 L11.9997584,20.375 L21,17 L29.9997584,20.375 L30,14 Z M24,8 L18,8 L18,11 L24,11 L24,8 Z" id="形状结合" fill="#222222" fill-rule="nonzero"></path>
                            </g>
                        </g>
                    </g>
                </g>
            </g>
        </g>
    </g>
</svg>