<svg width="1024" height="1024" viewBox="0 0 1024 1024" xmlns="http://www.w3.org/2000/svg"><title>Twitter</title><g fill="none" fill-rule="evenodd"><rect fill="#069FF5" width="1024" height="1024" rx="78"/><path d="M862.064 349.6a270.352 270.352 0 0 1-76.992 20.96 133.584 133.584 0 0 0 58.912-73.568 270.528 270.528 0 0 1-85.072 32.288 134.208 134.208 0 0 0-97.776-42.016c-74 0-133.968 59.52-133.968 132.976 0 10.368 1.184 20.592 3.488 30.32a381.552 381.552 0 0 1-276.144-138.912 131.424 131.424 0 0 0-18.16 66.784c0 46.16 23.664 86.816 59.6 110.672a133.584 133.584 0 0 1-60.672-16.672l-.016 1.68c0 64.432 46.208 118.144 107.472 130.352a135.84 135.84 0 0 1-60.528 2.256c17.745 54.325 68.01 91.403 125.152 92.32a270.032 270.032 0 0 1-166.368 56.976 270.58 270.58 0 0 1-31.984-1.904 381.296 381.296 0 0 0 205.36 59.744c246.416 0 381.168-202.56 381.168-378.272 0-5.76-.144-11.52-.368-17.2a269.6 269.6 0 0 0 66.896-68.784" fill="#FFF" fill-rule="nonzero"/></g></svg>